<svg id="pricing" xmlns="http://www.w3.org/2000/svg" viewBox="0 0 50 50">
  <title>generic-icon-support-globe</title>
  <path d="M21.79,7.37v0a.86.86,0,0,1,.15-.22L23.87,5.2a.68.68,0,1,1,1,1l-.77.77H25A18.45,18.45,0,0,1,41.65,17.5a.69.69,0,0,1-.33.91.72.72,0,0,1-.29.06.69.69,0,0,1-.62-.39A17.07,17.07,0,0,0,25,8.3h-.93l.77.76a.7.7,0,0,1,0,1,.69.69,0,0,1-1,0L21.94,8.1a.91.91,0,0,1-.15-.23h0a.7.7,0,0,1-.05-.25A.64.64,0,0,1,21.79,7.37Zm6.47,35a.66.66,0,0,0-.05-.25h0a.91.91,0,0,0-.15-.23L26.13,40a.69.69,0,0,0-1,1l.77.76H25a17.07,17.07,0,0,1-15.92-11,.68.68,0,1,0-1.28.48A18.44,18.44,0,0,0,25,43.07h.93l-.77.77A.68.68,0,0,0,25.64,45a.71.71,0,0,0,.49-.2l1.93-1.93a.86.86,0,0,0,.15-.22v0A.64.64,0,0,0,28.26,42.39ZM7.61,28.26a.66.66,0,0,0,.25-.05h0a.91.91,0,0,0,.23-.15L10,26.13a.69.69,0,0,0-1-1l-.76.77V25A17,17,0,0,1,18.69,9.32a.68.68,0,0,0-.53-1.26A18.33,18.33,0,0,0,6.93,25v.93l-.77-.77a.68.68,0,1,0-1,1l1.93,1.93a.86.86,0,0,0,.22.15h0A.64.64,0,0,0,7.61,28.26Zm37.19-5L42.87,21.3a.66.66,0,0,0-.22-.15h0a.64.64,0,0,0-.24,0,.66.66,0,0,0-.25,0h0a.7.7,0,0,0-.23.15L40,23.23a.68.68,0,0,0,1,1l.76-.76V25A17.15,17.15,0,0,1,31,40.82a.69.69,0,0,0-.38.89.69.69,0,0,0,.63.43.8.8,0,0,0,.26,0A18.53,18.53,0,0,0,43.07,25V23.43l.77.76a.63.63,0,0,0,.48.2.65.65,0,0,0,.48-.2A.67.67,0,0,0,44.8,23.23ZM38.27,25A13.2,13.2,0,0,1,25.06,38.23,13.29,13.29,0,0,1,11.79,25,13.2,13.2,0,0,1,25,11.78,13.29,13.29,0,0,1,38.27,25ZM28.65,13.72a13.78,13.78,0,0,1,2.72,5.9h4.22A12,12,0,0,0,28.65,13.72ZM30.25,21H25.68v7.2h4.69A23.5,23.5,0,0,0,30.59,25,23.4,23.4,0,0,0,30.25,21Zm-16.59,7.2h4.57A25.29,25.29,0,0,1,18,25a24.41,24.41,0,0,1,.32-4H13.84a11.8,11.8,0,0,0-.69,4,12,12,0,0,0,.45,3.19Zm6,0h4.69V21H19.74a23.4,23.4,0,0,0-.34,4A22,22,0,0,0,19.62,28.18ZM20,19.62h4.28V13.27C22.47,13.76,20.87,16.24,20,19.62Zm-.18,9.93c.77,3.79,2.48,6.62,4.46,7.16V29.55Zm10.29,0H25.68v7.16C27.66,36.17,29.36,33.34,30.14,29.55ZM30,19.62c-.85-3.38-2.44-5.86-4.28-6.35v6.35Zm-15.53,0h4.19a13.78,13.78,0,0,1,2.72-5.9,11.8,11.8,0,0,0-4.74,2.9A12.14,12.14,0,0,0,14.43,19.62Zm6.92,16.65a14.31,14.31,0,0,1-2.9-6.72H14.07A12,12,0,0,0,21.35,36.27ZM36,29.55H31.54a14.21,14.21,0,0,1-3,6.78A11.94,11.94,0,0,0,36,29.55ZM36.9,25a11.7,11.7,0,0,0-.71-4H31.64A25.58,25.58,0,0,1,32,25a27.35,27.35,0,0,1-.19,3.19h4.58l.13,0A11.37,11.37,0,0,0,36.9,25Z" fill="#aaa"/>
</svg>
