<svg id="pricing" xmlns="http://www.w3.org/2000/svg" viewBox="0 0 50 50">
  <title>generic-icon-support-tools</title>
  <path d="M34.39,30.61V28.23a.75.75,0,0,0-.6-.74c-2.63-.54-2.63-.54-2.92-.24l-.82.81L28,26l5-5c1.36.47,4.15,1.19,6.15-.81l1.34-1.35h0a5.77,5.77,0,0,0,1-7.16.76.76,0,0,0-1.2-.18L36.8,15l-2.53-2.53L37.78,9A.73.73,0,0,0,38,8.36a.76.76,0,0,0-.39-.56,5.76,5.76,0,0,0-7.17,1l-1.34,1.34c-2,2-1.24,4.82-.76,6.2l-5,5-3.09-3.09c-1.67-1.67-2.51-2.51-3-2.93l-.41-2.06a.73.73,0,0,0-.32-.48L11.17,9.21a.76.76,0,0,0-.95.09L8.43,11.1a.76.76,0,0,0-.1,1l3.6,5.38a.77.77,0,0,0,.47.32l2,.4,6.06,6.07-12,12a2.66,2.66,0,0,0,0,3.75l.9.91a2.67,2.67,0,0,0,3.75,0l12-12,2.05,2.05-.81.82c-.3.29-.3.29.24,2.92a.75.75,0,0,0,.74.6h2.38l7,7a2.64,2.64,0,0,0,3.75,0l.9-.9a2.64,2.64,0,0,0,0-3.75ZM15,16.72,13,16.33,9.93,11.72l.92-.92,4.62,3.08.38,1.93a.73.73,0,0,0,.23.41c.12.12,1.45,1.44,3.12,3.12l3.09,3.09-.27.26-.27.27-.19.19-6.23-6.22A.72.72,0,0,0,15,16.72Zm-2.89,23.1a1.15,1.15,0,0,1-1.63,0l-.89-.9a1.14,1.14,0,0,1,0-1.62L22.09,24.75,23.88,23h0l5.85-5.85a.75.75,0,0,0,.17-.79c-.89-2.4-.81-4,.25-5.07L31.5,9.9a4.13,4.13,0,0,1,4.43-1.18l-2.8,2.81a1.38,1.38,0,0,0,0,2l2.69,2.69a1.43,1.43,0,0,0,1,.41,1.39,1.39,0,0,0,1-.41l2.8-2.8a4.17,4.17,0,0,1-1.17,4.43l-1.35,1.35c-1.08,1.07-2.67,1.17-5,.3a.74.74,0,0,0-.79.17l-6.43,6.42-1.22,1.22h0Zm16.2-10-2.05-2.05.69-.69,0,0,2,2.05-.64.63Zm12,10.4-.9.9a1.19,1.19,0,0,1-1.63,0L30.6,34c-.2-.22-.22-.24-2.31-.24H28c-.09-.45-.18-.92-.25-1.24l1.69-1.69,1.17-1.17a0,0,0,0,0,0,0l1-1.05,1.24.25c0,2.42,0,2.43.22,2.61l7.18,7.18a1.15,1.15,0,0,1,0,1.63Zm-.91-.72a.5.5,0,0,1,0,.71.5.5,0,0,1-.35.15.51.51,0,0,1-.36-.15L31,32.62a.5.5,0,0,1,.71-.71ZM12.74,37.61a1,1,0,1,1-1-1A1,1,0,0,1,12.74,37.61Z" fill="#aaa"/>
</svg>
