<svg id="Layer_1_copy_11" data-name="Layer 1 copy 11" xmlns="http://www.w3.org/2000/svg" viewBox="0 0 1115.66 137.29">
  <title>generic-pricing-page-crowd</title>
  <path d="M76.31,19.67a7.37,7.37,0,1,0-7.44-7.3A7.37,7.37,0,0,0,76.31,19.67Z" transform="translate(-8.14 -4.93)" fill="#f8f8f9"/>
  <path d="M93.65,30.92a10,10,0,0,0-10.06-9.8l-9.86.09h-.67l-4,0a10,10,0,0,0-9.88,10v0l.18,19.49a3.19,3.19,0,0,0,6.37-.06l-.11-11.56-.06-6.49,1.52,0,.06,6.95L67.26,52l0,1.8.28,30.23A4.27,4.27,0,1,0,76.1,84l-.28-30.23h1.61L77.71,84a4.27,4.27,0,0,0,8.54-.08L86,53.66v-1.8l-.11-12.45-.07-6.95H87.3l.06,6.49.11,11.56a3.18,3.18,0,0,0,6.36-.06L93.65,31Z" transform="translate(-8.14 -4.93)" fill="#f8f8f9"/>
  <path d="M331.29,19.67a7.37,7.37,0,1,0-7.44-7.3A7.37,7.37,0,0,0,331.29,19.67Z" transform="translate(-8.14 -4.93)" fill="#f8f8f9"/>
  <path d="M348.63,30.92a10,10,0,0,0-10.06-9.8l-9.86.09H328l-4,0a10,10,0,0,0-9.88,10v0l.18,19.49a3.19,3.19,0,0,0,6.37-.06l-.11-11.56-.06-6.49,1.52,0,.06,6.95L322.24,52l0,1.8.28,30.23a4.27,4.27,0,0,0,8.54-.08l-.28-30.23h1.62L332.69,84a4.27,4.27,0,0,0,8.54-.08L341,53.66v-1.8l-.11-12.45-.07-6.95h1.52l.06,6.49.11,11.56a3.18,3.18,0,0,0,6.36-.06L348.63,31S348.63,30.93,348.63,30.92Z" transform="translate(-8.14 -4.93)" fill="#f8f8f9"/>
  <path d="M125.73,21.09a7.37,7.37,0,1,0-7.44-7.3A7.37,7.37,0,0,0,125.73,21.09Z" transform="translate(-8.14 -4.93)" fill="#f8f8f9"/>
  <path d="M143.07,32.34a10,10,0,0,0-10-9.81l-9.87.1h-.67l-4,0a10,10,0,0,0-9.87,10v0l.17,19.49a3.19,3.19,0,0,0,6.37-.06l-.1-11.56-.07-6.5h1.52l.07,7,.11,12.45,0,1.8L117,85.48a4.27,4.27,0,1,0,8.54-.08l-.28-30.23h1.62l.28,30.22a4.27,4.27,0,0,0,8.54-.07l-.28-30.23,0-1.8-.11-12.45-.07-6.95,1.53,0,.05,6.5.11,11.56a3.19,3.19,0,0,0,6.37-.06l-.19-19.49Z" transform="translate(-8.14 -4.93)" fill="#f8f8f9"/>
  <path d="M177,20.61a7.37,7.37,0,1,0-7.45-7.3A7.37,7.37,0,0,0,177,20.61Z" transform="translate(-8.14 -4.93)" fill="#f8f8f9"/>
  <path d="M194.33,31.87a10,10,0,0,0-10.06-9.81l-9.86.1h-.68l-4,0a10,10,0,0,0-9.88,10v0L160,51.7a3.19,3.19,0,0,0,6.37-.06l-.11-11.55-.06-6.5h1.52l.06,7L167.94,53v1.8L168.23,85a4.27,4.27,0,0,0,8.54-.08L176.5,54.7l1.61,0,.28,30.23a4.27,4.27,0,0,0,8.54-.08l-.28-30.22v-1.8l-.12-12.46-.06-7H188l.06,6.5.1,11.55a3.19,3.19,0,0,0,6.37,0l-.18-19.49Z" transform="translate(-8.14 -4.93)" fill="#f8f8f9"/>
  <path d="M228.24,20.14a7.37,7.37,0,1,0-7.44-7.3A7.37,7.37,0,0,0,228.24,20.14Z" transform="translate(-8.14 -4.93)" fill="#f8f8f9"/>
  <path d="M245.58,31.4a10,10,0,0,0-10.05-9.81l-9.86.09H225l-4,0a10,10,0,0,0-9.88,10v0l.18,19.49a3.19,3.19,0,0,0,6.37-.06l-.1-11.56-.07-6.49,1.52,0,.07,6.95.11,12.46,0,1.8.28,30.22a4.27,4.27,0,0,0,8.54-.07l-.28-30.23,1.62,0,.28,30.23a4.27,4.27,0,0,0,8.54-.08l-.28-30.23,0-1.8-.11-12.45-.07-7h1.52l.06,6.49L239.4,51a3.18,3.18,0,0,0,6.36-.06l-.18-19.49Z" transform="translate(-8.14 -4.93)" fill="#f8f8f9"/>
  <path d="M279.5,19.67a7.37,7.37,0,1,0-7.45-7.3A7.38,7.38,0,0,0,279.5,19.67Z" transform="translate(-8.14 -4.93)" fill="#f8f8f9"/>
  <path d="M296.84,30.92a10,10,0,0,0-10.06-9.8l-9.86.09h-.67l-4,0a10,10,0,0,0-9.88,10v0l.18,19.49a3.18,3.18,0,0,0,6.36-.06l-.1-11.56-.06-6.49,1.52,0,.06,6.95L270.45,52v1.8l.28,30.23a4.28,4.28,0,0,0,8.55-.08L279,53.75h1.61L280.9,84a4.27,4.27,0,0,0,8.54-.08l-.28-30.23v-1.8L289,39.41,289,32.46h1.52l.06,6.49.11,11.56a3.18,3.18,0,0,0,6.36-.06L296.84,31Z" transform="translate(-8.14 -4.93)" fill="#f8f8f9"/>
  <path d="M595.57,19.67a7.37,7.37,0,1,0-7.45-7.3A7.39,7.39,0,0,0,595.57,19.67Z" transform="translate(-8.14 -4.93)" fill="#f8f8f9"/>
  <path d="M612.91,30.92a10,10,0,0,0-10.06-9.8l-9.86.09h-.67l-4,0a10,10,0,0,0-9.88,10v0l.18,19.49A3.18,3.18,0,0,0,585,50.7l-.1-11.56-.06-6.49,1.52,0,.06,6.95L586.52,52v1.8l.28,30.23a4.28,4.28,0,0,0,8.55-.08l-.28-30.23h1.61L597,84a4.27,4.27,0,0,0,8.54-.08l-.28-30.23v-1.8l-.12-12.45L605,32.46h1.51l.07,6.49.11,11.56a3.18,3.18,0,0,0,6.36-.06L612.91,31Z" transform="translate(-8.14 -4.93)" fill="#f8f8f9"/>
  <path d="M390,21.09a7.37,7.37,0,1,0-7.44-7.3A7.38,7.38,0,0,0,390,21.09Z" transform="translate(-8.14 -4.93)" fill="#f8f8f9"/>
  <path d="M407.35,32.34a10,10,0,0,0-10.06-9.81l-9.86.1h-.67l-4,0a10,10,0,0,0-9.88,10v0l.18,19.49a3.19,3.19,0,0,0,6.37-.06l-.11-11.56-.06-6.5h1.52l.07,7L381,53.45l0,1.8.28,30.23a4.27,4.27,0,0,0,8.54-.08l-.28-30.23h1.61l.29,30.22a4.27,4.27,0,0,0,8.54-.07l-.28-30.23,0-1.8-.11-12.45-.07-6.95,1.52,0,.06,6.5.11,11.56a3.18,3.18,0,0,0,6.36-.06l-.18-19.49Z" transform="translate(-8.14 -4.93)" fill="#f8f8f9"/>
  <path d="M441.26,20.61a7.37,7.37,0,1,0-7.44-7.3A7.38,7.38,0,0,0,441.26,20.61Z" transform="translate(-8.14 -4.93)" fill="#f8f8f9"/>
  <path d="M458.6,31.87a10,10,0,0,0-10.06-9.81l-9.85.1H438l-4,0a10,10,0,0,0-9.87,10v0l.18,19.49a3.19,3.19,0,0,0,6.37-.06l-.11-11.55-.07-6.5H432l.06,7L432.21,53l0,1.8L432.51,85a4.27,4.27,0,0,0,8.54-.08l-.28-30.23,1.62,0,.28,30.23a4.27,4.27,0,1,0,8.54-.08l-.28-30.22,0-1.8-.11-12.46-.06-7h1.51l.06,6.5.11,11.55a3.18,3.18,0,0,0,6.36,0l-.17-19.49Z" transform="translate(-8.14 -4.93)" fill="#f8f8f9"/>
  <path d="M492.52,20.14a7.37,7.37,0,1,0-7.45-7.3A7.38,7.38,0,0,0,492.52,20.14Z" transform="translate(-8.14 -4.93)" fill="#f8f8f9"/>
  <path d="M509.86,31.4a10,10,0,0,0-10.06-9.81l-9.86.09h-.67l-4,0a10,10,0,0,0-9.88,10v0l.18,19.49a3.19,3.19,0,0,0,6.37-.06l-.11-11.56-.06-6.49,1.52,0,.06,6.95.12,12.46v1.8l.28,30.22a4.28,4.28,0,0,0,8.55-.07L492,54.23l1.61,0,.28,30.23a4.28,4.28,0,0,0,8.55-.08l-.29-30.23v-1.8l-.12-12.45-.06-7h1.52l.06,6.49L503.68,51a3.18,3.18,0,1,0,6.36-.06l-.18-19.49Z" transform="translate(-8.14 -4.93)" fill="#f8f8f9"/>
  <path d="M543.78,19.67a7.37,7.37,0,1,0-7.45-7.3A7.39,7.39,0,0,0,543.78,19.67Z" transform="translate(-8.14 -4.93)" fill="#f8f8f9"/>
  <path d="M561.12,30.92a10,10,0,0,0-10.06-9.8l-9.86.09h-.68l-4,0a10,10,0,0,0-9.87,10v0l.18,19.49a3.18,3.18,0,0,0,6.36-.06l-.1-11.56L533,32.65l1.52,0,.07,6.95L534.72,52l0,1.8L535,84.06a4.27,4.27,0,1,0,8.54-.08l-.28-30.23h1.62L545.18,84a4.27,4.27,0,0,0,8.54-.08l-.28-30.23,0-1.8-.11-12.45-.07-6.95h1.52l.07,6.49.1,11.56a3.19,3.19,0,0,0,6.37-.06L561.12,31Z" transform="translate(-8.14 -4.93)" fill="#f8f8f9"/>
  <path d="M850.55,19.67a7.37,7.37,0,1,0-7.45-7.3A7.38,7.38,0,0,0,850.55,19.67Z" transform="translate(-8.14 -4.93)" fill="#f8f8f9"/>
  <path d="M867.89,30.92a10,10,0,0,0-10.06-9.8l-9.86.09h-.67l-4,0a10,10,0,0,0-9.88,10v0l.18,19.49A3.18,3.18,0,0,0,840,50.7l-.1-11.56-.06-6.49,1.52,0,.06,6.95L841.5,52v1.8l.28,30.23a4.28,4.28,0,0,0,8.55-.08l-.28-30.23h1.61L852,84a4.27,4.27,0,0,0,8.54-.08l-.28-30.23v-1.8l-.12-12.45L860,32.46h1.52l.06,6.49.11,11.56a3.18,3.18,0,0,0,6.36-.06L867.89,31Z" transform="translate(-8.14 -4.93)" fill="#f8f8f9"/>
  <path d="M645,21.09a7.37,7.37,0,1,0-7.44-7.3A7.38,7.38,0,0,0,645,21.09Z" transform="translate(-8.14 -4.93)" fill="#f8f8f9"/>
  <path d="M662.33,32.34a10,10,0,0,0-10.06-9.81l-9.86.1h-.67l-4,0a10,10,0,0,0-9.88,10v0L628,52.18a3.19,3.19,0,0,0,6.37-.06l-.11-11.56-.06-6.5h1.52l.07,7,.11,12.45,0,1.8.28,30.23a4.27,4.27,0,1,0,8.54-.08l-.28-30.23h1.62l.28,30.22a4.27,4.27,0,0,0,8.54-.07l-.28-30.23,0-1.8-.11-12.45-.07-6.95,1.52,0,.06,6.5.11,11.56a3.19,3.19,0,0,0,6.37-.06l-.19-19.49Z" transform="translate(-8.14 -4.93)" fill="#f8f8f9"/>
  <path d="M696.24,20.61a7.37,7.37,0,1,0-7.44-7.3A7.38,7.38,0,0,0,696.24,20.61Z" transform="translate(-8.14 -4.93)" fill="#f8f8f9"/>
  <path d="M713.58,31.87a10,10,0,0,0-10.05-9.81l-9.86.1H693l-4,0a10,10,0,0,0-9.88,10v0l.18,19.49a3.19,3.19,0,0,0,6.37-.06l-.11-11.55-.07-6.5H687l.06,7L687.19,53l0,1.8L687.49,85a4.27,4.27,0,0,0,8.54-.08l-.28-30.23,1.62,0,.28,30.23a4.27,4.27,0,1,0,8.54-.08l-.28-30.22,0-1.8-.11-12.46-.06-7h1.51l.07,6.5.1,11.55a3.18,3.18,0,0,0,6.36,0l-.17-19.49Z" transform="translate(-8.14 -4.93)" fill="#f8f8f9"/>
  <path d="M747.5,20.14a7.37,7.37,0,1,0-7.44-7.3A7.38,7.38,0,0,0,747.5,20.14Z" transform="translate(-8.14 -4.93)" fill="#f8f8f9"/>
  <path d="M764.84,31.4a10,10,0,0,0-10.06-9.81l-9.86.09h-.67l-4,0a10,10,0,0,0-9.88,10v0l.18,19.49a3.19,3.19,0,0,0,6.37-.06l-.11-11.56-.06-6.49,1.52,0,.06,6.95.12,12.46v1.8l.28,30.22a4.28,4.28,0,0,0,8.55-.07L747,54.23l1.61,0,.28,30.23a4.28,4.28,0,0,0,8.55-.08l-.29-30.23v-1.8L757,39.88l-.06-7h1.52l.06,6.49L758.66,51a3.18,3.18,0,0,0,6.36-.06l-.18-19.49Z" transform="translate(-8.14 -4.93)" fill="#f8f8f9"/>
  <path d="M798.76,19.67a7.37,7.37,0,1,0-7.45-7.3A7.39,7.39,0,0,0,798.76,19.67Z" transform="translate(-8.14 -4.93)" fill="#f8f8f9"/>
  <path d="M816.1,30.92A10,10,0,0,0,806,21.12l-9.86.09h-.67l-4,0a10,10,0,0,0-9.88,10v0l.18,19.49a3.18,3.18,0,0,0,6.36-.06l-.1-11.56L788,32.65l1.52,0,.07,6.95L789.7,52l0,1.8L790,84.06a4.27,4.27,0,1,0,8.54-.08l-.28-30.23h1.62L800.16,84a4.27,4.27,0,0,0,8.54-.08l-.28-30.23,0-1.8-.11-12.45-.07-6.95h1.52l.07,6.49.1,11.56a3.19,3.19,0,0,0,6.37-.06L816.1,31Z" transform="translate(-8.14 -4.93)" fill="#f8f8f9"/>
  <path d="M900,21.09a7.37,7.37,0,1,0-7.44-7.3A7.38,7.38,0,0,0,900,21.09Z" transform="translate(-8.14 -4.93)" fill="#f8f8f9"/>
  <path d="M917.31,32.34a10,10,0,0,0-10.06-9.81l-9.86.1h-.67l-4,0a10,10,0,0,0-9.87,10s0,0,0,0L883,52.18a3.19,3.19,0,0,0,6.37-.06l-.11-11.56-.06-6.5h1.52l.07,7,.11,12.45,0,1.8.28,30.23a4.27,4.27,0,1,0,8.54-.08l-.28-30.23h1.62l.28,30.22a4.27,4.27,0,0,0,8.54-.07l-.28-30.23,0-1.8-.11-12.45-.07-6.95,1.52,0,.06,6.5.11,11.56a3.19,3.19,0,0,0,6.37-.06l-.19-19.49Z" transform="translate(-8.14 -4.93)" fill="#f8f8f9"/>
  <path d="M951.23,20.61a7.37,7.37,0,1,0-7.45-7.3A7.38,7.38,0,0,0,951.23,20.61Z" transform="translate(-8.14 -4.93)" fill="#f8f8f9"/>
  <path d="M968.57,31.87a10,10,0,0,0-10.06-9.81l-9.86.1H948l-4,0a10,10,0,0,0-9.88,10v0l.18,19.49a3.19,3.19,0,0,0,6.37-.06l-.11-11.55-.06-6.5H942l.06,7L942.18,53v1.8L942.47,85a4.27,4.27,0,0,0,8.54-.08l-.28-30.23,1.62,0,.28,30.23a4.27,4.27,0,1,0,8.54-.08l-.28-30.22v-1.8l-.12-12.46-.06-7h1.51l.07,6.5.1,11.55a3.19,3.19,0,0,0,6.37,0l-.18-19.49Z" transform="translate(-8.14 -4.93)" fill="#f8f8f9"/>
  <path d="M1002.48,20.14a7.37,7.37,0,1,0-7.44-7.3A7.38,7.38,0,0,0,1002.48,20.14Z" transform="translate(-8.14 -4.93)" fill="#f8f8f9"/>
  <path d="M1019.82,31.4a10,10,0,0,0-10.06-9.81l-9.86.09h-.67l-4,0a10,10,0,0,0-9.88,10v0l.18,19.49a3.19,3.19,0,0,0,6.37-.06l-.11-11.56-.06-6.49,1.52,0,.06,6.95.12,12.46v1.8l.28,30.22a4.28,4.28,0,0,0,8.55-.07L1002,54.23l1.61,0,.28,30.23a4.28,4.28,0,0,0,8.55-.08l-.29-30.23v-1.8L1012,39.88l-.06-7h1.52l.06,6.49.11,11.56a3.18,3.18,0,1,0,6.36-.06l-.18-19.49Z" transform="translate(-8.14 -4.93)" fill="#f8f8f9"/>
  <path d="M1053.74,19.67a7.37,7.37,0,1,0-7.45-7.3A7.39,7.39,0,0,0,1053.74,19.67Z" transform="translate(-8.14 -4.93)" fill="#f8f8f9"/>
  <path d="M1071.08,30.92a10,10,0,0,0-10.06-9.8l-9.86.09h-.67l-4,0a10,10,0,0,0-9.88,10v0l.18,19.49a3.18,3.18,0,0,0,6.36-.06l-.1-11.56-.06-6.49,1.51,0,.07,6.95.11,12.45,0,1.8.28,30.23a4.27,4.27,0,1,0,8.54-.08l-.28-30.23h1.62l.28,30.23a4.27,4.27,0,0,0,8.54-.08l-.28-30.23,0-1.8-.11-12.45-.07-6.95h1.52l.07,6.49.1,11.56a3.19,3.19,0,0,0,6.37-.06L1071.08,31Z" transform="translate(-8.14 -4.93)" fill="#f8f8f9"/>
  <g>
    <path d="M51.69,46.8a7.37,7.37,0,1,0-7.45-7.3A7.37,7.37,0,0,0,51.69,46.8Z" transform="translate(-8.14 -4.93)" fill="#f1f2f2"/>
    <path d="M69,58.06A10,10,0,0,0,59,48.26l-9.86.09h-.67l-4,0a10,10,0,0,0-9.88,10v0l.18,19.49a3.18,3.18,0,0,0,6.36-.06L41,66.28l-.07-6.5h1.52l.07,6.95.11,12.45,0,1.8.28,30.23a4.27,4.27,0,1,0,8.54-.08l-.28-30.23h1.62l.28,30.22a4.27,4.27,0,0,0,8.54-.07L61.35,80.8l0-1.8-.11-12.45-.07-6.95,1.52,0,.07,6.5.1,11.56a3.19,3.19,0,0,0,6.37-.06L69,58.09Z" transform="translate(-8.14 -4.93)" fill="#f1f2f2"/>
    <path d="M306.67,46.8a7.37,7.37,0,1,0-7.45-7.3A7.37,7.37,0,0,0,306.67,46.8Z" transform="translate(-8.14 -4.93)" fill="#f1f2f2"/>
    <path d="M324,58.06A10,10,0,0,0,314,48.26l-9.86.09h-.67l-4,0a10,10,0,0,0-9.88,10v0l.18,19.49a3.18,3.18,0,0,0,6.36-.06L296,66.28l-.06-6.5h1.51l.07,6.95.11,12.45,0,1.8.28,30.23a4.27,4.27,0,0,0,8.54-.08l-.28-30.23h1.62l.28,30.22a4.27,4.27,0,0,0,8.54-.07l-.28-30.23,0-1.8-.11-12.45-.07-6.95,1.52,0,.07,6.5.1,11.56a3.19,3.19,0,0,0,6.37-.06L324,58.09Z" transform="translate(-8.14 -4.93)" fill="#f1f2f2"/>
    <path d="M101.11,48.22a7.37,7.37,0,1,0-7.45-7.3A7.37,7.37,0,0,0,101.11,48.22Z" transform="translate(-8.14 -4.93)" fill="#f1f2f2"/>
    <path d="M118.45,59.48a10,10,0,0,0-10.06-9.81l-9.86.1h-.67l-4,0a10,10,0,0,0-9.88,10v0l.18,19.49a3.19,3.19,0,0,0,6.37-.06L90.42,67.7l-.06-6.5h1.52l.06,7,.12,12.45,0,1.8.28,30.23a4.27,4.27,0,0,0,8.54-.08l-.28-30.23,1.61,0,.28,30.23a4.27,4.27,0,1,0,8.54-.08l-.28-30.22v-1.8L110.64,68l-.06-7h1.52l.06,6.5.1,11.55a3.19,3.19,0,0,0,6.37,0l-.18-19.49Z" transform="translate(-8.14 -4.93)" fill="#f1f2f2"/>
    <path d="M152.36,47.75a7.37,7.37,0,1,0-7.44-7.3A7.37,7.37,0,0,0,152.36,47.75Z" transform="translate(-8.14 -4.93)" fill="#f1f2f2"/>
    <path d="M169.7,59a10,10,0,0,0-10.06-9.81l-9.85.09h-.68l-4,0a10,10,0,0,0-9.87,10v0l.18,19.49a3.18,3.18,0,0,0,6.36-.06l-.11-11.56-.06-6.49,1.52,0,.07,6.95.11,12.46,0,1.8.28,30.23a4.27,4.27,0,0,0,8.54-.08l-.28-30.23,1.62,0,.28,30.23a4.27,4.27,0,0,0,8.54-.08L162,81.75l0-1.8-.11-12.46-.07-6.95h1.52l.06,6.49.11,11.56a3.18,3.18,0,1,0,6.36-.06L169.71,59S169.7,59,169.7,59Z" transform="translate(-8.14 -4.93)" fill="#f1f2f2"/>
    <path d="M203.62,47.28a7.37,7.37,0,1,0-7.45-7.3A7.38,7.38,0,0,0,203.62,47.28Z" transform="translate(-8.14 -4.93)" fill="#f1f2f2"/>
    <path d="M221,58.53a10,10,0,0,0-10.06-9.8l-9.86.09h-.67l-4,0a10,10,0,0,0-9.88,10v0l.18,19.49a3.19,3.19,0,0,0,6.37-.06l-.11-11.56-.06-6.49,1.52,0,.06,6.95.12,12.46v1.8l.28,30.22a4.28,4.28,0,0,0,8.55-.08l-.28-30.23h1.61l.28,30.23a4.27,4.27,0,0,0,8.54-.08l-.28-30.23v-1.8L213.15,67l-.06-6.95,1.52,0,.06,6.5.11,11.56a3.18,3.18,0,0,0,6.36-.06L221,58.56Z" transform="translate(-8.14 -4.93)" fill="#f1f2f2"/>
    <path d="M254.87,46.8a7.37,7.37,0,1,0-7.44-7.3A7.36,7.36,0,0,0,254.87,46.8Z" transform="translate(-8.14 -4.93)" fill="#f1f2f2"/>
    <path d="M272.21,58.06a10,10,0,0,0-10.06-9.8l-9.85.09h-.68l-4,0a10,10,0,0,0-9.87,10v0l.18,19.49a3.19,3.19,0,0,0,6.37-.06l-.11-11.56-.06-6.5h1.52l.07,6.95.11,12.45,0,1.8.28,30.23a4.27,4.27,0,0,0,8.54-.08l-.28-30.23H256l.27,30.22a4.28,4.28,0,0,0,8.55-.07l-.28-30.23,0-1.8-.11-12.45-.07-6.95,1.52,0,.06,6.5L266,77.64a3.18,3.18,0,0,0,6.36-.06l-.17-19.49S272.21,58.07,272.21,58.06Z" transform="translate(-8.14 -4.93)" fill="#f1f2f2"/>
    <path d="M570.94,46.8a7.37,7.37,0,1,0-7.44-7.3A7.36,7.36,0,0,0,570.94,46.8Z" transform="translate(-8.14 -4.93)" fill="#f1f2f2"/>
    <path d="M588.28,58.06a10,10,0,0,0-10.06-9.8l-9.85.09h-.68l-4,0a10,10,0,0,0-9.87,10v0L554,77.9a3.19,3.19,0,0,0,6.37-.06l-.11-11.56-.06-6.5h1.52l.07,6.95.11,12.45,0,1.8.28,30.23a4.27,4.27,0,1,0,8.54-.08l-.28-30.23h1.62l.27,30.22a4.28,4.28,0,0,0,8.55-.07l-.28-30.23,0-1.8-.11-12.45-.07-6.95,1.52,0,.06,6.5.11,11.56a3.18,3.18,0,0,0,6.36-.06l-.17-19.49S588.28,58.07,588.28,58.06Z" transform="translate(-8.14 -4.93)" fill="#f1f2f2"/>
    <path d="M365.38,48.22a7.37,7.37,0,1,0-7.44-7.3A7.38,7.38,0,0,0,365.38,48.22Z" transform="translate(-8.14 -4.93)" fill="#f1f2f2"/>
    <path d="M382.72,59.48a10,10,0,0,0-10.05-9.81l-9.86.1h-.68l-4,0a10,10,0,0,0-9.87,10v0l.18,19.49a3.18,3.18,0,0,0,6.36-.06l-.1-11.55-.06-6.5h1.52l.06,7,.12,12.45v1.8l.28,30.23a4.28,4.28,0,0,0,8.55-.08l-.28-30.23,1.61,0,.28,30.23a4.27,4.27,0,0,0,8.54-.08l-.28-30.22v-1.8L374.92,68l-.06-7h1.52l.05,6.5.11,11.55a3.19,3.19,0,0,0,6.37,0l-.19-19.49Z" transform="translate(-8.14 -4.93)" fill="#f1f2f2"/>
    <path d="M416.64,47.75a7.37,7.37,0,1,0-7.45-7.3A7.38,7.38,0,0,0,416.64,47.75Z" transform="translate(-8.14 -4.93)" fill="#f1f2f2"/>
    <path d="M434,59a10,10,0,0,0-10.06-9.81l-9.86.09h-.68l-4,0a10,10,0,0,0-9.87,10v0l.18,19.49a3.19,3.19,0,0,0,6.37-.06L406,67.22l-.06-6.49,1.52,0,.06,6.95.12,12.46,0,1.8.28,30.23a4.27,4.27,0,0,0,8.54-.08l-.28-30.23,1.61,0,.28,30.23a4.28,4.28,0,0,0,8.55-.08l-.28-30.22,0-1.8-.12-12.46-.06-6.95h1.52l.06,6.49.11,11.56a3.18,3.18,0,1,0,6.36-.06L434,59Z" transform="translate(-8.14 -4.93)" fill="#f1f2f2"/>
    <path d="M467.9,47.28a7.37,7.37,0,1,0-7.45-7.3A7.37,7.37,0,0,0,467.9,47.28Z" transform="translate(-8.14 -4.93)" fill="#f1f2f2"/>
    <path d="M485.23,58.53a10,10,0,0,0-10.05-9.8l-9.86.09h-.68l-4,0a10,10,0,0,0-9.87,10v0L451,78.37a3.18,3.18,0,0,0,6.36-.06l-.1-11.56-.07-6.49,1.52,0,.07,6.95.11,12.46,0,1.8.28,30.22a4.27,4.27,0,1,0,8.54-.08l-.28-30.23H469l.28,30.23a4.27,4.27,0,0,0,8.54-.08l-.28-30.23v-1.8L477.43,67l-.06-6.95,1.51,0,.06,6.5.11,11.56a3.19,3.19,0,0,0,6.37-.06l-.18-19.49S485.23,58.54,485.23,58.53Z" transform="translate(-8.14 -4.93)" fill="#f1f2f2"/>
    <path d="M519.15,46.8a7.37,7.37,0,1,0-7.44-7.3A7.36,7.36,0,0,0,519.15,46.8Z" transform="translate(-8.14 -4.93)" fill="#f1f2f2"/>
    <path d="M536.49,58.06a10,10,0,0,0-10.06-9.8l-9.86.09h-.67l-4,0a10,10,0,0,0-9.88,10v0l.18,19.49a3.19,3.19,0,0,0,6.37-.06l-.11-11.56-.06-6.5h1.52l.06,6.95.12,12.45,0,1.8.28,30.23a4.27,4.27,0,1,0,8.54-.08l-.28-30.23h1.61l.28,30.22a4.27,4.27,0,0,0,8.54-.07l-.28-30.23V79l-.12-12.45-.06-6.95,1.52,0,.06,6.5.11,11.56a3.18,3.18,0,0,0,6.36-.06l-.18-19.49Z" transform="translate(-8.14 -4.93)" fill="#f1f2f2"/>
    <path d="M825.92,46.8a7.37,7.37,0,1,0-7.44-7.3A7.36,7.36,0,0,0,825.92,46.8Z" transform="translate(-8.14 -4.93)" fill="#f1f2f2"/>
    <path d="M843.26,58.06a10,10,0,0,0-10.06-9.8l-9.85.09h-.68l-4,0a10,10,0,0,0-9.87,10v0L809,77.9a3.18,3.18,0,0,0,6.36-.06l-.11-11.56-.06-6.5h1.52l.07,6.95.11,12.45,0,1.8.28,30.23a4.27,4.27,0,1,0,8.54-.08l-.28-30.23h1.62l.27,30.22a4.28,4.28,0,0,0,8.55-.07l-.28-30.23,0-1.8-.11-12.45-.07-6.95,1.52,0,.06,6.5.11,11.56a3.19,3.19,0,0,0,6.37-.06l-.18-19.49S843.26,58.07,843.26,58.06Z" transform="translate(-8.14 -4.93)" fill="#f1f2f2"/>
    <path d="M620.37,48.22a7.37,7.37,0,1,0-7.45-7.3A7.38,7.38,0,0,0,620.37,48.22Z" transform="translate(-8.14 -4.93)" fill="#f1f2f2"/>
    <path d="M637.71,59.48a10,10,0,0,0-10.06-9.81l-9.86.1h-.68l-4,0a10,10,0,0,0-9.87,10v0l.18,19.49a3.19,3.19,0,0,0,6.37-.06l-.11-11.55-.06-6.5h1.52l.06,7,.12,12.45v1.8l.28,30.23a4.28,4.28,0,0,0,8.55-.08l-.28-30.23,1.61,0,.28,30.23a4.27,4.27,0,1,0,8.54-.08L630,82.22v-1.8L629.9,68l-.06-7h1.52l0,6.5.11,11.55a3.19,3.19,0,0,0,6.37,0l-.18-19.49Z" transform="translate(-8.14 -4.93)" fill="#f1f2f2"/>
    <path d="M671.62,47.75a7.37,7.37,0,1,0-7.45-7.3A7.37,7.37,0,0,0,671.62,47.75Z" transform="translate(-8.14 -4.93)" fill="#f1f2f2"/>
    <path d="M689,59A10,10,0,0,0,678.9,49.2l-9.85.09h-.68l-4,0a10,10,0,0,0-9.87,10v0l.18,19.49a3.19,3.19,0,0,0,6.37-.06l-.11-11.56-.06-6.49,1.52,0,.06,6.95.12,12.46,0,1.8.28,30.23a4.27,4.27,0,0,0,8.54-.08l-.28-30.23,1.61,0,.28,30.23a4.28,4.28,0,0,0,8.55-.08l-.28-30.22,0-1.8-.12-12.46-.06-6.95h1.52l.06,6.49.11,11.56a3.18,3.18,0,0,0,6.36-.06L689,59Z" transform="translate(-8.14 -4.93)" fill="#f1f2f2"/>
    <path d="M722.88,47.28a7.37,7.37,0,1,0-7.45-7.3A7.37,7.37,0,0,0,722.88,47.28Z" transform="translate(-8.14 -4.93)" fill="#f1f2f2"/>
    <path d="M740.21,58.53a10,10,0,0,0-10.05-9.8l-9.86.09h-.68l-4,0a10,10,0,0,0-9.87,10v0l.18,19.49a3.18,3.18,0,0,0,6.36-.06l-.1-11.56-.07-6.49,1.52,0,.07,6.95.11,12.46,0,1.8.28,30.22a4.27,4.27,0,1,0,8.54-.08l-.28-30.23H724l.28,30.23a4.27,4.27,0,0,0,8.54-.08l-.28-30.23v-1.8L732.41,67l-.06-6.95,1.51,0,.06,6.5L734,78.11a3.19,3.19,0,0,0,6.37-.06l-.18-19.49S740.21,58.54,740.21,58.53Z" transform="translate(-8.14 -4.93)" fill="#f1f2f2"/>
    <path d="M774.13,46.8a7.37,7.37,0,1,0-7.44-7.3A7.36,7.36,0,0,0,774.13,46.8Z" transform="translate(-8.14 -4.93)" fill="#f1f2f2"/>
    <path d="M791.47,58.06a10,10,0,0,0-10.06-9.8l-9.86.09h-.67l-4,0a10,10,0,0,0-9.88,10v0l.18,19.49a3.19,3.19,0,0,0,6.37-.06l-.11-11.56-.06-6.5h1.52l.06,6.95.12,12.45,0,1.8.28,30.23a4.27,4.27,0,1,0,8.54-.08l-.28-30.23h1.61l.28,30.22a4.27,4.27,0,0,0,8.54-.07l-.28-30.23V79l-.11-12.45-.07-6.95,1.52,0,.06,6.5.11,11.56a3.18,3.18,0,0,0,6.36-.06l-.18-19.49S791.47,58.07,791.47,58.06Z" transform="translate(-8.14 -4.93)" fill="#f1f2f2"/>
    <path d="M1080.9,46.8a7.37,7.37,0,1,0-7.44-7.3A7.37,7.37,0,0,0,1080.9,46.8Z" transform="translate(-8.14 -4.93)" fill="#f1f2f2"/>
    <path d="M1098.24,58.06a10,10,0,0,0-10-9.8l-9.86.09h-.68l-4,0a10,10,0,0,0-9.87,10v0L1064,77.9a3.18,3.18,0,0,0,6.36-.06l-.11-11.56-.06-6.5h1.52l.07,6.95.11,12.45,0,1.8.28,30.23a4.27,4.27,0,1,0,8.54-.08l-.28-30.23H1082l.28,30.22a4.27,4.27,0,0,0,8.54-.07l-.28-30.23,0-1.8-.11-12.45-.07-6.95,1.52,0,.06,6.5.11,11.56a3.19,3.19,0,0,0,6.37-.06l-.18-19.49S1098.24,58.07,1098.24,58.06Z" transform="translate(-8.14 -4.93)" fill="#f1f2f2"/>
    <path d="M875.35,48.22a7.37,7.37,0,1,0-7.45-7.3A7.38,7.38,0,0,0,875.35,48.22Z" transform="translate(-8.14 -4.93)" fill="#f1f2f2"/>
    <path d="M892.69,59.48a10,10,0,0,0-10.06-9.81l-9.86.1h-.68l-4,0a10,10,0,0,0-9.88,10v0l.18,19.49a3.19,3.19,0,0,0,6.37-.06l-.11-11.55-.06-6.5h1.52l.06,7,.12,12.45v1.8l.28,30.23a4.28,4.28,0,0,0,8.55-.08l-.28-30.23,1.61,0,.28,30.23a4.27,4.27,0,1,0,8.54-.08L885,82.22v-1.8L884.88,68l-.06-7h1.52l.06,6.5.1,11.55a3.19,3.19,0,0,0,6.37,0l-.18-19.49Z" transform="translate(-8.14 -4.93)" fill="#f1f2f2"/>
    <path d="M926.6,47.75a7.37,7.37,0,1,0-7.45-7.3A7.37,7.37,0,0,0,926.6,47.75Z" transform="translate(-8.14 -4.93)" fill="#f1f2f2"/>
    <path d="M943.94,59a10,10,0,0,0-10.06-9.81l-9.85.09h-.68l-4,0a10,10,0,0,0-9.87,10v0l.19,19.49a3.18,3.18,0,0,0,6.36-.06l-.11-11.56-.06-6.49,1.52,0,.07,6.95.11,12.46,0,1.8.28,30.23a4.27,4.27,0,0,0,8.54-.08l-.28-30.23,1.61,0,.28,30.23a4.28,4.28,0,0,0,8.55-.08l-.28-30.22,0-1.8-.11-12.46-.07-6.95h1.52l.06,6.49.11,11.56a3.18,3.18,0,1,0,6.36-.06L943.94,59Z" transform="translate(-8.14 -4.93)" fill="#f1f2f2"/>
    <path d="M977.86,47.28a7.37,7.37,0,1,0-7.45-7.3A7.37,7.37,0,0,0,977.86,47.28Z" transform="translate(-8.14 -4.93)" fill="#f1f2f2"/>
    <path d="M995.19,58.53a10,10,0,0,0-10.05-9.8l-9.86.09h-.67l-4,0a10,10,0,0,0-9.87,10v0l.18,19.49a3.19,3.19,0,0,0,6.37-.06l-.11-11.56-.07-6.49,1.53,0,.06,6.95.11,12.46,0,1.8.28,30.22a4.27,4.27,0,1,0,8.54-.08l-.28-30.23H979l.28,30.23a4.27,4.27,0,0,0,8.54-.08l-.28-30.23v-1.8L987.39,67l-.06-6.95,1.51,0,.06,6.5L989,78.11a3.19,3.19,0,0,0,6.37-.06l-.18-19.49S995.19,58.54,995.19,58.53Z" transform="translate(-8.14 -4.93)" fill="#f1f2f2"/>
    <path d="M1029.11,46.8a7.37,7.37,0,1,0-7.44-7.3A7.36,7.36,0,0,0,1029.11,46.8Z" transform="translate(-8.14 -4.93)" fill="#f1f2f2"/>
    <path d="M1046.45,58.06a10,10,0,0,0-10.06-9.8l-9.86.09h-.67l-4,0a10,10,0,0,0-9.88,10v0l.18,19.49a3.19,3.19,0,0,0,6.37-.06l-.11-11.56-.06-6.5h1.52l.06,6.95.12,12.45,0,1.8.28,30.23a4.27,4.27,0,1,0,8.54-.08l-.28-30.23h1.62l.27,30.22a4.27,4.27,0,0,0,8.54-.07l-.28-30.23V79l-.11-12.45-.07-6.95,1.52,0,.06,6.5.11,11.56a3.18,3.18,0,0,0,6.36-.06l-.18-19.49S1046.45,58.07,1046.45,58.06Z" transform="translate(-8.14 -4.93)" fill="#f1f2f2"/>
  </g>
  <g>
    <path d="M332,72.18a7.37,7.37,0,1,0-7.44-7.3A7.37,7.37,0,0,0,332,72.18Z" transform="translate(-8.14 -4.93)" fill="#ededed"/>
    <path d="M349.38,83.44a10,10,0,0,0-10.06-9.81l-9.86.09h-.67l-4,0a10,10,0,0,0-9.88,10v0l.18,19.49a3.19,3.19,0,0,0,6.37-.06l-.11-11.56-.06-6.49,1.52,0,.06,7,.12,12.45,0,1.79.28,30.23a4.27,4.27,0,0,0,8.54-.07l-.28-30.23,1.62,0,.27,30.23a4.27,4.27,0,1,0,8.54-.08l-.28-30.22v-1.8l-.11-12.46-.07-7H343l.06,6.5L343.2,103a3.18,3.18,0,0,0,6.36-.06l-.18-19.48S349.38,83.45,349.38,83.44Z" transform="translate(-8.14 -4.93)" fill="#ededed"/>
    <path d="M126.48,73.6A7.37,7.37,0,1,0,119,66.3,7.37,7.37,0,0,0,126.48,73.6Z" transform="translate(-8.14 -4.93)" fill="#ededed"/>
    <path d="M143.82,84.85a10,10,0,0,0-10-9.8l-9.87.09h-.67l-4,0a10,10,0,0,0-9.87,10v0l.17,19.49a3.19,3.19,0,0,0,6.37-.06l-.1-11.56-.07-6.5h1.52l.07,7,.11,12.46,0,1.8.28,30.22a4.28,4.28,0,0,0,8.55-.07L126,107.68h1.62l.28,30.23a4.27,4.27,0,0,0,8.54-.08l-.28-30.23,0-1.8L136,93.34l-.07-7h1.53l.05,6.49.11,11.56a3.19,3.19,0,0,0,6.37-.06l-.19-19.49Z" transform="translate(-8.14 -4.93)" fill="#ededed"/>
    <path d="M177.74,73.13a7.37,7.37,0,1,0-7.45-7.3A7.38,7.38,0,0,0,177.74,73.13Z" transform="translate(-8.14 -4.93)" fill="#ededed"/>
    <path d="M195.08,84.38A10,10,0,0,0,185,74.58l-9.86.09h-.68l-4,0a10,10,0,0,0-9.88,10v0l.18,19.49a3.19,3.19,0,0,0,6.37-.06l-.11-11.56L167,86.1h1.52l.06,7,.12,12.45,0,1.8.27,30.23a4.27,4.27,0,0,0,8.54-.08l-.27-30.23h1.61l.28,30.22a4.28,4.28,0,0,0,8.55-.07l-.29-30.23v-1.8l-.12-12.45-.06-7,1.52,0,.06,6.5.1,11.56a3.19,3.19,0,0,0,6.37-.06l-.18-19.49Z" transform="translate(-8.14 -4.93)" fill="#ededed"/>
    <path d="M229,72.65a7.37,7.37,0,1,0-7.44-7.3A7.36,7.36,0,0,0,229,72.65Z" transform="translate(-8.14 -4.93)" fill="#ededed"/>
    <path d="M246.33,83.91a10,10,0,0,0-10.05-9.81l-9.86.1h-.68l-4,0a10,10,0,0,0-9.88,10v0l.18,19.49a3.19,3.19,0,0,0,6.37-.06l-.1-11.55-.07-6.5h1.52l.07,6.95.11,12.45,0,1.8.28,30.23a4.27,4.27,0,0,0,8.54-.08l-.28-30.23,1.62,0L230.4,137a4.27,4.27,0,0,0,8.54-.08l-.28-30.22,0-1.8-.11-12.46-.07-7H240l.06,6.5.11,11.55a3.18,3.18,0,0,0,6.36-.06l-.18-19.48Z" transform="translate(-8.14 -4.93)" fill="#ededed"/>
    <path d="M280.25,72.18a7.37,7.37,0,1,0-7.45-7.3A7.37,7.37,0,0,0,280.25,72.18Z" transform="translate(-8.14 -4.93)" fill="#ededed"/>
    <path d="M297.59,83.44a10,10,0,0,0-10.06-9.81l-9.86.09H277l-4,0a10,10,0,0,0-9.88,10v0l.18,19.49a3.18,3.18,0,0,0,6.36-.06l-.1-11.56-.06-6.49,1.52,0,.06,7,.12,12.45v1.79l.28,30.23a4.28,4.28,0,0,0,8.55-.07l-.28-30.23,1.61,0,.28,30.23a4.27,4.27,0,0,0,8.54-.08l-.28-30.22v-1.8l-.12-12.46-.06-7h1.52l.06,6.5.11,11.55a3.18,3.18,0,0,0,6.36-.06l-.18-19.48Z" transform="translate(-8.14 -4.93)" fill="#ededed"/>
    <path d="M596.32,72.18a7.37,7.37,0,1,0-7.45-7.3A7.37,7.37,0,0,0,596.32,72.18Z" transform="translate(-8.14 -4.93)" fill="#ededed"/>
    <path d="M613.66,83.44a10,10,0,0,0-10.06-9.81l-9.86.09h-.67l-4,0a10,10,0,0,0-9.88,10v0l.18,19.49a3.18,3.18,0,0,0,6.36-.06l-.1-11.56-.06-6.49,1.52,0,.06,7,.12,12.45v1.79l.28,30.23a4.28,4.28,0,0,0,8.55-.07l-.28-30.23,1.61,0,.28,30.23a4.27,4.27,0,1,0,8.54-.08L606,106.18v-1.8l-.12-12.46-.06-7h1.52l.06,6.5.11,11.55a3.18,3.18,0,0,0,6.36-.06l-.18-19.48Z" transform="translate(-8.14 -4.93)" fill="#ededed"/>
    <path d="M390.76,73.6a7.37,7.37,0,1,0-7.44-7.3A7.38,7.38,0,0,0,390.76,73.6Z" transform="translate(-8.14 -4.93)" fill="#ededed"/>
    <path d="M408.1,84.85A10,10,0,0,0,398,75.05l-9.86.09h-.67l-4,0a10,10,0,0,0-9.88,10v0l.18,19.49a3.19,3.19,0,0,0,6.37-.06l-.11-11.56-.06-6.5h1.52l.07,7,.11,12.46,0,1.8L382,138a4.27,4.27,0,0,0,8.54-.07l-.28-30.24h1.61l.29,30.23a4.27,4.27,0,0,0,8.54-.08l-.28-30.23,0-1.8-.11-12.45-.07-7h1.52l.06,6.49.11,11.56a3.18,3.18,0,1,0,6.36-.06l-.18-19.49Z" transform="translate(-8.14 -4.93)" fill="#ededed"/>
    <path d="M442,73.13a7.37,7.37,0,1,0-7.44-7.3A7.39,7.39,0,0,0,442,73.13Z" transform="translate(-8.14 -4.93)" fill="#ededed"/>
    <path d="M459.35,84.38a10,10,0,0,0-10.05-9.8l-9.86.09h-.68l-4,0a10,10,0,0,0-9.88,10v0l.18,19.49a3.19,3.19,0,0,0,6.37-.06l-.11-11.56-.07-6.5h1.53l.06,7,.11,12.45,0,1.8.28,30.23a4.27,4.27,0,1,0,8.54-.08l-.28-30.23h1.62l.28,30.22a4.27,4.27,0,0,0,8.54-.07l-.28-30.23,0-1.8-.11-12.45-.06-7,1.51,0,.06,6.5.11,11.56a3.18,3.18,0,0,0,6.36-.06l-.17-19.49S459.35,84.39,459.35,84.38Z" transform="translate(-8.14 -4.93)" fill="#ededed"/>
    <path d="M493.27,72.65a7.37,7.37,0,1,0-7.44-7.3A7.37,7.37,0,0,0,493.27,72.65Z" transform="translate(-8.14 -4.93)" fill="#ededed"/>
    <path d="M510.61,83.91a10,10,0,0,0-10.06-9.81l-9.86.1H490l-4,0a10,10,0,0,0-9.88,10v0l.18,19.49a3.19,3.19,0,0,0,6.37-.06l-.11-11.55-.06-6.5H484l.06,6.95.12,12.45v1.8l.28,30.23a4.28,4.28,0,0,0,8.55-.08l-.28-30.23,1.61,0,.28,30.23a4.28,4.28,0,0,0,8.55-.08l-.29-30.22v-1.8l-.12-12.46-.06-7h1.52l.06,6.5.11,11.55a3.18,3.18,0,1,0,6.36-.06l-.18-19.48Z" transform="translate(-8.14 -4.93)" fill="#ededed"/>
    <path d="M544.53,72.18a7.37,7.37,0,1,0-7.45-7.3A7.38,7.38,0,0,0,544.53,72.18Z" transform="translate(-8.14 -4.93)" fill="#ededed"/>
    <path d="M561.87,83.44a10,10,0,0,0-10.06-9.81l-9.86.09h-.67l-4,0a10,10,0,0,0-9.87,10v0l.18,19.49a3.18,3.18,0,0,0,6.36-.06l-.1-11.56-.07-6.49,1.52,0,.07,7,.11,12.45,0,1.79.28,30.23a4.27,4.27,0,0,0,8.54-.07L544,106.27l1.62,0,.28,30.23a4.27,4.27,0,1,0,8.54-.08l-.28-30.22,0-1.8-.11-12.46L554,85h1.52l.07,6.5.1,11.55a3.19,3.19,0,0,0,6.37-.06l-.18-19.48Z" transform="translate(-8.14 -4.93)" fill="#ededed"/>
    <path d="M851.3,72.18a7.37,7.37,0,1,0-7.45-7.3A7.37,7.37,0,0,0,851.3,72.18Z" transform="translate(-8.14 -4.93)" fill="#ededed"/>
    <path d="M868.64,83.44a10,10,0,0,0-10.06-9.81l-9.86.09h-.67l-4,0a10,10,0,0,0-9.88,10v0l.18,19.49a3.18,3.18,0,0,0,6.36-.06l-.1-11.56-.06-6.49,1.52,0,.06,7,.12,12.45v1.79l.28,30.23a4.28,4.28,0,0,0,8.55-.07l-.28-30.23,1.61,0,.28,30.23a4.27,4.27,0,1,0,8.54-.08L861,106.18v-1.8l-.12-12.46-.06-7h1.52l.06,6.5.11,11.55a3.18,3.18,0,0,0,6.36-.06l-.18-19.48Z" transform="translate(-8.14 -4.93)" fill="#ededed"/>
    <path d="M645.74,73.6a7.37,7.37,0,1,0-7.44-7.3A7.38,7.38,0,0,0,645.74,73.6Z" transform="translate(-8.14 -4.93)" fill="#ededed"/>
    <path d="M663.08,84.85A10,10,0,0,0,653,75.05l-9.86.09h-.67l-4,0a10,10,0,0,0-9.88,10v0l.18,19.49a3.19,3.19,0,0,0,6.37-.06l-.11-11.56-.06-6.5h1.52l.07,7,.11,12.46,0,1.8L637,138a4.27,4.27,0,0,0,8.54-.07l-.28-30.24h1.62l.28,30.23a4.27,4.27,0,0,0,8.54-.08l-.28-30.23,0-1.8-.11-12.45-.07-7h1.52l.06,6.49.11,11.56a3.19,3.19,0,0,0,6.37-.06l-.19-19.49Z" transform="translate(-8.14 -4.93)" fill="#ededed"/>
    <path d="M697,73.13a7.37,7.37,0,1,0-7.44-7.3A7.39,7.39,0,0,0,697,73.13Z" transform="translate(-8.14 -4.93)" fill="#ededed"/>
    <path d="M714.33,84.38a10,10,0,0,0-10.05-9.8l-9.86.09h-.68l-4,0a10,10,0,0,0-9.88,10v0l.18,19.49a3.19,3.19,0,0,0,6.37-.06l-.11-11.56-.06-6.5h1.52l.06,7,.11,12.45,0,1.8.28,30.23a4.27,4.27,0,1,0,8.54-.08l-.28-30.23h1.62l.28,30.22a4.27,4.27,0,0,0,8.54-.07l-.28-30.23,0-1.8-.11-12.45-.06-7,1.51,0,.07,6.5.1,11.56a3.18,3.18,0,0,0,6.36-.06l-.17-19.49S714.33,84.39,714.33,84.38Z" transform="translate(-8.14 -4.93)" fill="#ededed"/>
    <path d="M748.25,72.65a7.37,7.37,0,1,0-7.44-7.3A7.37,7.37,0,0,0,748.25,72.65Z" transform="translate(-8.14 -4.93)" fill="#ededed"/>
    <path d="M765.59,83.91a10,10,0,0,0-10.06-9.81l-9.86.1H745l-4,0a10,10,0,0,0-9.88,10v0l.18,19.49a3.19,3.19,0,0,0,6.37-.06l-.11-11.55-.06-6.5H739l.06,6.95L739.2,105v1.8l.28,30.23A4.28,4.28,0,0,0,748,137l-.28-30.23,1.61,0,.28,30.23a4.28,4.28,0,0,0,8.55-.08l-.29-30.22v-1.8l-.12-12.46-.06-7h1.52l.06,6.5.11,11.55a3.18,3.18,0,0,0,6.36-.06l-.18-19.48Z" transform="translate(-8.14 -4.93)" fill="#ededed"/>
    <path d="M799.51,72.18a7.37,7.37,0,1,0-7.45-7.3A7.38,7.38,0,0,0,799.51,72.18Z" transform="translate(-8.14 -4.93)" fill="#ededed"/>
    <path d="M816.85,83.44a10,10,0,0,0-10.06-9.81l-9.86.09h-.67l-4,0a10,10,0,0,0-9.88,10v0l.18,19.49a3.18,3.18,0,0,0,6.36-.06l-.1-11.56-.07-6.49,1.52,0,.07,7,.11,12.45,0,1.79.28,30.23a4.27,4.27,0,0,0,8.54-.07L799,106.27l1.62,0,.28,30.23a4.27,4.27,0,1,0,8.54-.08l-.28-30.22,0-1.8L809,91.92,809,85h1.52l.07,6.5.1,11.55A3.19,3.19,0,0,0,817,103l-.18-19.48Z" transform="translate(-8.14 -4.93)" fill="#ededed"/>
    <path d="M1106.28,72.18a7.37,7.37,0,1,0-7.45-7.3A7.37,7.37,0,0,0,1106.28,72.18Z" transform="translate(-8.14 -4.93)" fill="#ededed"/>
    <path d="M1123.62,83.44a10,10,0,0,0-10.06-9.81l-9.86.09H1103l-4,0a10,10,0,0,0-9.88,10v0l.18,19.49a3.18,3.18,0,0,0,6.36-.06l-.1-11.56-.06-6.49,1.52,0,.06,7,.12,12.45v1.79l.28,30.23a4.28,4.28,0,0,0,8.55-.07l-.28-30.23,1.61,0,.28,30.23a4.27,4.27,0,1,0,8.54-.08l-.28-30.22v-1.8l-.12-12.46-.06-7h1.52l.06,6.5.11,11.55a3.18,3.18,0,1,0,6.36-.06l-.18-19.48Z" transform="translate(-8.14 -4.93)" fill="#ededed"/>
    <path d="M900.72,73.6a7.37,7.37,0,1,0-7.44-7.3A7.38,7.38,0,0,0,900.72,73.6Z" transform="translate(-8.14 -4.93)" fill="#ededed"/>
    <path d="M918.06,84.85A10,10,0,0,0,908,75.05l-9.86.09h-.67l-4,0a10,10,0,0,0-9.87,10s0,0,0,0l.18,19.49a3.19,3.19,0,0,0,6.37-.06L890,93.07l-.06-6.5h1.52l.07,7,.11,12.46,0,1.8L892,138a4.27,4.27,0,0,0,8.54-.07l-.28-30.24h1.62l.28,30.23a4.27,4.27,0,0,0,8.54-.08l-.28-30.23,0-1.8-.11-12.45-.07-7h1.52l.06,6.49.11,11.56a3.19,3.19,0,0,0,6.37-.06l-.19-19.49Z" transform="translate(-8.14 -4.93)" fill="#ededed"/>
    <path d="M952,73.13a7.37,7.37,0,1,0-7.45-7.3A7.38,7.38,0,0,0,952,73.13Z" transform="translate(-8.14 -4.93)" fill="#ededed"/>
    <path d="M969.32,84.38a10,10,0,0,0-10.06-9.8l-9.86.09h-.68l-4,0a10,10,0,0,0-9.88,10v0l.18,19.49a3.19,3.19,0,0,0,6.37-.06l-.11-11.56-.06-6.5h1.52l.06,7,.12,12.45v1.8l.28,30.23a4.27,4.27,0,1,0,8.54-.08l-.28-30.23h1.62l.28,30.22a4.27,4.27,0,0,0,8.54-.07l-.28-30.23v-1.8l-.12-12.45-.06-7,1.51,0,.07,6.5.1,11.56a3.19,3.19,0,0,0,6.37-.06l-.18-19.49Z" transform="translate(-8.14 -4.93)" fill="#ededed"/>
    <path d="M1003.23,72.65a7.37,7.37,0,1,0-7.44-7.3A7.36,7.36,0,0,0,1003.23,72.65Z" transform="translate(-8.14 -4.93)" fill="#ededed"/>
    <path d="M1020.57,83.91a10,10,0,0,0-10.06-9.81l-9.86.1H1000l-4,0a10,10,0,0,0-9.88,10v0l.18,19.49a3.19,3.19,0,0,0,6.37-.06l-.11-11.55-.06-6.5H994l.06,6.95.12,12.45v1.8l.28,30.23A4.28,4.28,0,0,0,1003,137l-.28-30.23,1.61,0,.28,30.23a4.28,4.28,0,0,0,8.55-.08l-.28-30.22,0-1.8-.12-12.46-.06-7h1.52l.06,6.5.11,11.55a3.18,3.18,0,1,0,6.36-.06l-.18-19.48Z" transform="translate(-8.14 -4.93)" fill="#ededed"/>
    <path d="M1054.49,72.18a7.37,7.37,0,1,0-7.45-7.3A7.38,7.38,0,0,0,1054.49,72.18Z" transform="translate(-8.14 -4.93)" fill="#ededed"/>
    <path d="M1071.83,83.44a10,10,0,0,0-10.06-9.81l-9.86.09h-.67l-4,0a10,10,0,0,0-9.88,10v0l.18,19.49a3.18,3.18,0,0,0,6.36-.06l-.1-11.56-.06-6.49,1.51,0,.07,7,.11,12.45,0,1.79.28,30.23a4.27,4.27,0,0,0,8.54-.07l-.28-30.23,1.62,0,.28,30.23a4.27,4.27,0,1,0,8.54-.08l-.28-30.22,0-1.8L1064,91.92l-.07-7h1.52l.07,6.5.1,11.55A3.19,3.19,0,0,0,1072,103l-.18-19.48Z" transform="translate(-8.14 -4.93)" fill="#ededed"/>
    <path d="M77.06,72.18a7.37,7.37,0,1,0-7.44-7.3A7.37,7.37,0,0,0,77.06,72.18Z" transform="translate(-8.14 -4.93)" fill="#ededed"/>
    <path d="M94.4,83.44a10,10,0,0,0-10.06-9.81l-9.86.09h-.67l-4,0a10,10,0,0,0-9.88,10v0l.18,19.49a3.19,3.19,0,0,0,6.37-.06l-.11-11.56-.06-6.49,1.52,0,.06,7L68,104.55l0,1.79.28,30.23a4.27,4.27,0,0,0,8.54-.07l-.28-30.23,1.61,0,.28,30.23A4.27,4.27,0,1,0,87,136.4l-.28-30.22v-1.8L86.6,91.92l-.07-7h1.52l.06,6.5L88.22,103a3.18,3.18,0,0,0,6.36-.06L94.4,83.47S94.4,83.45,94.4,83.44Z" transform="translate(-8.14 -4.93)" fill="#ededed"/>
    <path d="M25.27,72.18a7.37,7.37,0,1,0-7.45-7.3A7.38,7.38,0,0,0,25.27,72.18Z" transform="translate(-8.14 -4.93)" fill="#ededed"/>
    <path d="M42.61,83.44a10,10,0,0,0-10.06-9.81l-9.86.09H22l-4,0a10,10,0,0,0-9.88,10v0l.18,19.49a3.18,3.18,0,0,0,6.36-.06l-.1-11.56-.06-6.49,1.52,0,.06,7,.12,12.45v1.79l.28,30.23a4.28,4.28,0,0,0,8.55-.07l-.28-30.23,1.61,0,.28,30.23a4.27,4.27,0,1,0,8.54-.08l-.28-30.22v-1.8L34.8,91.92l-.06-7h1.51l.07,6.5L36.43,103a3.18,3.18,0,0,0,6.36-.06l-.18-19.48Z" transform="translate(-8.14 -4.93)" fill="#ededed"/>
  </g>
</svg>
