<svg id="pricing" xmlns="http://www.w3.org/2000/svg" viewBox="0 0 50 50">
  <title>generic-icon-support-phone</title>
  <path d="M20,44l-.56,0a9,9,0,0,1-5.79-2.45l-.11-.12c-.23-.24-.45-.48-.64-.72a4.23,4.23,0,0,1-1-2.51,4.7,4.7,0,0,1,.74-3l.12-.13A3.56,3.56,0,0,1,14,34.42l5.65-1.94a2.71,2.71,0,0,1,3,.74l.71.71c.42.41.74.73.91.91s.28.23.45.15c3.91-2,6.52-4.6,9-9,.06-.14.08-.2-.16-.42s-.51-.49-.91-.9c-.23-.23-.47-.48-.72-.72a2.73,2.73,0,0,1-.73-3l1.92-5.58a3.42,3.42,0,0,1,.68-1.16L34,14a4.49,4.49,0,0,1,2.75-.75h.19a4.23,4.23,0,0,1,2.53,1,8.22,8.22,0,0,1,.71.63l.13.12a9,9,0,0,1,2.45,5.79c.23,3.5-1.78,7-2.65,8.29-3.66,5.81-7,9.15-12.31,12.3A15.24,15.24,0,0,1,20,44Zm.52-10.14a1,1,0,0,0-.39.08l-5.66,2a2.06,2.06,0,0,0-.6.34l0,.05a3.74,3.74,0,0,0-.33,1.86,2.69,2.69,0,0,0,.62,1.57,7.34,7.34,0,0,0,.53.6l.1.1a7.31,7.31,0,0,0,4.79,2c3.11.21,6.4-1.79,7.33-2.4,5.12-3,8.32-6.23,11.83-11.81.62-1,2.61-4.25,2.41-7.36a7.31,7.31,0,0,0-2-4.79L39,16c-.19-.18-.39-.36-.59-.52a2.69,2.69,0,0,0-1.57-.62h-.22a3.18,3.18,0,0,0-1.64.33l0,0a2.33,2.33,0,0,0-.36.63L32.68,21.4a1.25,1.25,0,0,0,.38,1.39l.72.73.83.83a1.83,1.83,0,0,1,.51,2.33c-2.7,4.77-5.51,7.57-9.71,9.7a1.81,1.81,0,0,1-2.33-.5c-.13-.14-.47-.48-.84-.84l-.72-.71A1.4,1.4,0,0,0,20.56,33.86Zm2.65-6.68A1.41,1.41,0,0,1,22,26.55l-3-4.46H10a2.68,2.68,0,0,1-2.68-2.68V8.68A2.68,2.68,0,0,1,10,6H25.74a2.69,2.69,0,0,1,2.68,2.68V19.41a2.69,2.69,0,0,1-2.68,2.68H24.63v3.67a1.43,1.43,0,0,1-1,1.36A1.4,1.4,0,0,1,23.21,27.18ZM10,7.56A1.12,1.12,0,0,0,8.83,8.68V19.41A1.12,1.12,0,0,0,10,20.53h9.51a.79.79,0,0,1,.65.34l2.95,4.4v-4a.78.78,0,0,1,.78-.78h1.9a1.12,1.12,0,0,0,1.11-1.12V8.68a1.12,1.12,0,0,0-1.11-1.12ZM24,14.62H21.76a.79.79,0,0,1,0-1.57H24a.79.79,0,0,1,0,1.57Zm-5.06,0H16.71a.79.79,0,0,1,0-1.57H19a.79.79,0,1,1,0,1.57Zm-5,0H11.66a.79.79,0,0,1,0-1.57h2.26a.79.79,0,0,1,0,1.57Z" fill="#aaa"/>
</svg>
