<svg id="pricing" xmlns="http://www.w3.org/2000/svg" viewBox="0 0 50 50">
  <title>generic-icon-support-shield</title>
  <path d="M25,44a.79.79,0,0,1-.46-.15l-.26-.19a41.94,41.94,0,0,1-6-5.33,43.86,43.86,0,0,1-5.63-7.48A41,41,0,0,1,8.66,22a37.15,37.15,0,0,1-1.61-8.6L7,13a.77.77,0,0,1,.72-.83l.44,0a33.81,33.81,0,0,0,8.08-1.54,24.73,24.73,0,0,0,8-4.2l.28-.23a.78.78,0,0,1,1,0l.28.23a24.73,24.73,0,0,0,8,4.2,33.81,33.81,0,0,0,8.08,1.54l.44,0A.77.77,0,0,1,43,13l0,.44A37.25,37.25,0,0,1,41.34,22a41,41,0,0,1-4,8.81,44,44,0,0,1-5.63,7.48,41.94,41.94,0,0,1-6,5.33l-.26.19A.79.79,0,0,1,25,44ZM8.64,13.67a35.63,35.63,0,0,0,1.51,7.91A39,39,0,0,0,14,30.05a42.22,42.22,0,0,0,5.44,7.21,39.78,39.78,0,0,0,5.61,5,40.42,40.42,0,0,0,5.61-5,41.83,41.83,0,0,0,5.44-7.21,39,39,0,0,0,3.8-8.47,35.07,35.07,0,0,0,1.51-7.91,35.31,35.31,0,0,1-8.11-1.58A26.37,26.37,0,0,1,25,7.78a26.48,26.48,0,0,1-8.25,4.31A35.31,35.31,0,0,1,8.64,13.67ZM24.52,27l6-6a.78.78,0,0,0-1.11-1.11L24,25.31l-2.23-2.23a.78.78,0,1,0-1.1,1.1L23.42,27a.83.83,0,0,0,.55.23h0A.79.79,0,0,0,24.52,27ZM25,33.44a9.81,9.81,0,1,1,9.8-9.81A9.81,9.81,0,0,1,25,33.44Zm0-18a8.24,8.24,0,1,0,8.24,8.24A8.25,8.25,0,0,0,25,15.39Z" fill="#aaa"/>
</svg>
